<svg width="1515" height="198" viewBox="0 0 1515 198" fill="none" xmlns="http://www.w3.org/2000/svg">
<path d="M0.777344 33.3998L29.151 41.5998L61.6255 45.2998L95.7626 41.2998L113.939 33.3998L134.111 34.5998L190.304 33.3998L255.475 34.5998L323.195 39.3998L412.417 44.0998L446.221 40.8998L486.344 17.2998L529.236 15.7998L558.94 22.0998L585.43 28.6998L626.217 28.3998L702.582 45.2998L763.319 49.6998L801.335 44.9998L852.541 55.0998L903.857 56.3998L997.291 44.6998L1055.48 50.9998L1114.78 54.1998L1215.97 39.6998L1295.77 25.7998L1382.66 37.1998L1442.96 42.1998L1479.64 37.1998L1514.78 38.6998V197.6H0.777344V33.3998Z" fill="#150500"/>
<path d="M1514.78 46C1508.68 47.4 1499.59 44.6 1495.05 43.3C1490.5 44.7 1485.96 48.8 1479.86 48.8C1472.33 48.8 1460.13 46.1 1455.59 52.9C1449.49 55.6 1438.96 55.6 1432.87 55.6C1422.23 55.6 1410.15 44.7 1399.51 50.1C1391.97 50.1 1384.32 52.8 1376.79 51.5C1364.71 52.9 1351.07 46 1341.98 52.9C1338.99 51.5 1337.44 52.9 1335.89 52.9C1332.9 51.5 1326.8 50.2 1323.81 48.8C1307.18 47.4 1292 36.5 1273.82 37.9C1272.27 42 1267.73 42 1266.28 44.7C1266.28 44.7 1264.73 44.7 1264.73 46.1C1258.64 48.8 1245 54.3 1239.02 47.5C1229.93 44.8 1220.84 46.1 1211.75 46.1C1210.2 48.8 1198.12 47.5 1196.57 50.2C1185.93 52.9 1175.4 52.9 1164.76 54.3C1161.77 54.3 1160.22 52.9 1157.22 55.7C1152.68 55.7 1146.58 55.7 1142.04 55.7C1137.49 59.8 1129.96 62.5 1123.86 62.5C1117.77 61.1 1113.22 65.2 1111.78 69.3C1101.14 73.4 1089.06 67.9 1078.42 67.9C1072.32 72 1064.79 66.5 1058.69 63.8C1055.7 62.4 1049.6 63.8 1049.6 61.1C1046.61 61.1 1043.51 59.7 1040.51 59.7C1038.96 59.7 1035.97 59.7 1032.98 58.3C1031.43 58.3 1028.43 58.3 1026.88 56.9C1020.79 56.9 1014.8 56.9 1008.71 54.2C1007.15 54.2 1004.16 55.6 1002.61 55.6C998.065 61.1 993.521 61.1 985.984 61.1C979.888 61.1 973.903 63.8 969.359 66.6H963.263C961.711 72.1 958.719 69.3 954.175 69.3C952.623 69.3 949.63 66.6 948.079 67.9C940.542 62.4 929.902 65.2 922.365 62.4C919.373 61 916.269 58.3 913.277 61C910.284 61 907.181 62.4 904.188 62.4C901.196 65.1 893.548 65.1 889.004 65.1C884.46 67.8 878.364 65.1 872.379 66.5C866.283 66.5 858.746 67.9 852.65 66.5C849.658 65.1 842.01 67.9 840.569 65.1C829.929 63.7 822.392 54.2 810.311 54.2C808.76 54.2 804.215 55.6 802.775 54.2C793.686 54.2 787.59 55.6 778.502 54.2C776.95 58.3 780.054 66.5 773.958 67.9C773.958 69.3 772.406 69.3 770.965 69.3C773.958 67.9 764.869 73.4 763.428 73.4C757.332 73.4 752.788 73.4 749.796 67.9C745.252 66.5 740.707 66.5 734.611 66.5C733.06 66.5 731.619 66.5 730.067 65.1C723.971 65.1 719.427 59.6 714.883 59.6C714.883 59.6 714.883 59.6 713.331 59.6C711.78 52.8 702.691 55.5 698.147 52.8C695.154 50.1 690.61 50.1 686.066 50.1C681.522 50.1 681.522 47.4 675.426 48.7C673.874 48.7 670.882 47.3 669.33 46C664.786 46 661.793 44.6 655.697 44.6C651.153 46 643.616 50.1 639.072 46C639.072 46 639.072 46 637.52 46C637.52 37.8 632.976 43.3 631.424 41.9C626.88 41.9 623.888 46 622.336 50.1C619.343 52.8 610.255 50.1 610.255 47.4C601.167 44.7 590.527 44.7 587.534 35.1C581.438 37.8 573.901 36.5 567.805 36.5C566.254 35.1 560.269 29.7 560.269 28.3C558.717 28.3 557.276 29.7 557.276 26.9C552.732 26.9 548.188 28.3 543.643 25.5C543.643 29.6 531.563 24.1 533.003 28.2C526.907 32.3 519.371 28.2 514.826 24.1C507.29 25.5 504.186 33.7 495.098 33.7C484.458 35.1 473.929 40.5 461.737 41.9C454.2 40.5 452.648 52.8 443.56 50.1L439.016 48.7C431.479 47.3 434.471 54.2 434.471 58.3C434.471 63.8 428.376 67.9 423.831 69.2C420.839 71.9 414.743 71.9 410.199 71.9C404.103 70.5 399.559 59.6 392.022 63.7C385.926 67.8 381.382 76 372.293 74.6C367.749 70.5 360.212 67.8 355.668 63.7C349.572 59.6 343.587 59.6 337.491 58.2C334.499 59.6 331.395 58.2 329.954 56.8C317.874 56.8 307.233 52.7 298.145 48.6C289.057 50 281.52 50 272.431 50C272.431 50 269.439 50 269.439 51.4C263.343 47.3 258.799 50 251.262 48.7C248.269 48.7 242.173 48.7 240.622 51.4C234.526 51.4 229.982 52.8 223.997 52.8C219.452 52.8 216.46 54.2 211.916 51.4C204.379 51.4 195.29 51.4 189.195 50C183.099 44.5 175.562 35 164.922 40.4C161.929 40.4 155.833 41.8 152.841 40.4C149.848 44.5 139.208 41.8 136.216 44.5C131.671 43.1 125.576 45.9 124.135 43.1C119.59 43.1 115.046 43.1 112.054 40.4H110.502C107.51 47.2 102.965 44.5 101.414 47.2C99.8619 47.2 93.8769 48.6 93.8769 49.9C87.781 48.5 86.3401 49.9 78.6925 49.9C75.7 52.6 69.6041 55.4 65.0599 58.1C58.964 59.5 52.9789 56.7 48.4347 56.7C40.8979 55.3 39.3463 54 33.2504 52.6C30.2578 49.9 21.1694 44.4 16.6252 48.5C10.5293 49.9 5.98507 51.2 0 51.2V16C4.54422 17.4 7.53675 20.1 13.6326 21.5C16.6252 24.2 19.7286 25.6 25.7136 27C33.2504 27 42.3388 29.7 51.4272 31.1C55.9714 35.2 57.5231 35.2 60.5157 37.9C65.0599 37.9 71.1558 37.9 75.7 37.9C80.2442 36.5 84.7884 35.2 89.3326 33.8C87.781 29.7 89.3326 29.7 92.3252 29.7C93.8769 27 96.8694 28.3 96.8694 25.6C98.4211 25.6 99.8619 27 99.8619 25.6C102.854 25.6 107.399 25.6 110.502 25.6C110.502 27 121.142 27 121.142 28.3C128.679 29.7 137.767 25.6 142.312 29.7C149.848 31.1 158.937 28.3 166.584 31.1C190.857 32.5 204.49 22.9 227.1 24.3C242.284 25.7 252.814 21.6 265.005 16.1C269.55 18.8 284.734 21.6 284.734 28.4C284.734 28.4 286.286 28.4 286.286 29.8C292.382 29.8 296.926 29.8 302.911 27.1C316.543 31.2 318.095 27.1 325.632 20.3C330.176 21.7 336.272 17.6 340.816 17.6C349.905 19 357.441 16.2 365.089 13.5C368.082 13.5 368.082 16.2 369.633 14.9C371.185 14.9 371.185 14.9 371.185 16.3C372.737 16.3 374.177 16.3 375.729 17.7C378.722 17.7 383.266 17.7 386.369 17.7C393.906 17.7 400.002 19.1 406.098 24.5C415.186 28.6 418.179 27.2 427.267 30C433.363 31.4 440.9 39.6 445.444 31.4C445.444 31.4 445.444 31.4 445.444 30C448.437 30 446.996 27.3 449.988 25.9C451.54 25.9 456.084 21.8 457.525 20.4C460.518 19 460.518 14.9 463.621 13.6C471.158 15 480.246 19.1 486.342 13.6C492.438 9.5 498.423 9.5 504.519 5.4C509.063 5.4 510.615 2.7 516.6 2.7C519.592 2.7 522.696 1.3 527.24 2.7C527.24 1.3 527.24 1.3 527.24 0C530.233 4.1 530.233 2.7 530.233 1.4C531.784 1.4 536.328 2.8 537.769 2.8C537.769 2.8 539.321 2.8 539.321 4.2C545.417 6.9 562.042 9.7 563.594 13.8C568.138 13.8 571.13 16.5 575.675 16.5C580.219 17.9 586.315 15.1 589.307 17.9C593.852 16.5 599.947 20.6 604.492 16.5C609.036 15.1 619.676 16.5 622.668 13.8C624.22 13.8 628.764 12.4 628.764 11.1C630.316 11.1 633.309 12.5 633.309 13.8C633.309 13.8 634.86 13.8 634.86 15.2C634.86 13.8 636.412 13.8 636.412 15.2C637.964 17.9 645.5 17.9 647.052 20.7C654.589 23.4 663.677 20.7 669.773 26.2C666.781 31.7 677.31 30.3 681.854 30.3C686.398 38.5 698.479 31.7 701.583 37.1C701.583 37.1 703.134 37.1 703.134 38.5C712.223 44 719.76 34.4 728.848 35.8C733.392 34.4 737.936 33.1 744.032 31.7C742.481 27.6 744.032 29 745.584 29C748.577 27.6 753.121 26.3 757.665 26.3C760.658 34.5 774.29 31.8 783.379 33.1C790.915 34.5 797.011 39.9 806.1 41.3C821.284 41.3 836.358 42.7 851.542 42.7C859.079 45.4 862.182 52.3 869.719 53.6C871.27 55 877.255 49.5 877.255 52.2C881.8 53.6 886.344 50.8 889.336 50.8C892.329 50.8 898.425 45.3 899.977 48.1C912.058 46.7 930.234 52.2 939.323 44C942.315 42.6 942.315 41.3 945.419 38.5C952.955 39.9 956.059 30.3 963.596 28.9C972.684 24.8 984.765 30.3 993.853 28.9C1004.49 28.9 1016.57 26.2 1024.11 20.7H1025.66C1030.21 26.2 1039.3 24.8 1043.84 30.3C1049.94 37.1 1062.02 39.9 1072.66 38.5C1083.3 44 1093.83 52.2 1106.02 45.3C1107.57 41.2 1116.66 42.6 1119.65 42.6C1128.74 42.6 1136.28 42.6 1145.36 42.6C1149.91 39.9 1159 41.2 1165.09 41.2C1168.09 41.2 1168.09 41.2 1171.19 41.2C1180.28 41.2 1190.92 42.6 1200.01 39.8C1204.55 37.1 1207.54 35.7 1212.09 33C1216.63 26.2 1219.62 30.3 1224.17 26.2C1230.26 28.9 1239.35 27.6 1245.34 27.6C1249.88 27.6 1254.43 30.3 1257.42 27.6C1261.96 16.7 1278.59 20.8 1286.23 12.6C1287.79 12.6 1289.23 11.2 1289.23 11.2C1293.77 7.1 1299.87 4.4 1307.4 4.4C1311.95 5.8 1314.94 1.7 1318.04 1.7C1321.04 4.4 1321.04 5.8 1327.13 7.2C1328.68 8.6 1330.13 9.9 1333.23 11.3C1334.78 11.3 1337.77 12.7 1337.77 11.3C1352.96 14 1368.03 18.1 1383.22 23.6C1387.76 23.6 1392.3 25 1396.85 25C1399.84 25 1401.39 29.1 1404.38 27.7C1416.47 27.7 1422.56 38.6 1434.64 33.2C1445.28 33.2 1449.83 27.7 1460.36 23.6C1460.36 20.9 1471 22.2 1472.44 22.2C1473.99 31.8 1476.98 26.3 1479.97 30.4C1487.51 31.8 1495.16 31.8 1502.69 31.8C1507.24 33.2 1508.79 34.5 1514.78 33.2V46Z" fill="#E7746F"/>
</svg>
