<svg width="34" height="34" viewBox="0 0 34 34" fill="none" xmlns="http://www.w3.org/2000/svg">
<path d="M26.3761 29.5324C26.9203 29.2985 27.4122 28.958 27.8228 28.531C28.2333 28.104 28.5543 27.5991 28.7667 27.0461C29.4281 25.208 29.1545 23.16 27.9539 22.1241C26.7533 21.0882 23.8819 19.5635 23.8819 19.5635C23.8819 19.5635 23.162 20.9421 24.4131 22.8732C25.6084 24.7325 26.2565 25.6968 26.6576 26.738C27.1729 28.0768 26.3761 29.5324 26.3761 29.5324Z" fill="#FF017A"/>
<path d="M29.458 23.1573C29.458 23.1573 29.7422 21.1837 26.6344 19.9698C24.2783 19.0454 22.3127 18.2592 21.3564 17.1011C21.0553 16.7463 20.8356 16.3298 20.7126 15.881C20.5896 15.4322 20.5664 14.962 20.6445 14.5032C20.6445 14.5032 21.4042 15.4197 24.4191 15.7357C27.1922 16.0279 28.9347 17.0187 29.6625 18.6125C30.0086 19.3274 30.1711 20.1173 30.1354 20.9108C30.0997 21.7043 29.8669 22.4764 29.458 23.1573ZM22.4959 18.91C22.4959 18.91 23.1467 20.9234 21.9806 22.1161C20.9633 23.1547 19.4572 23.1573 18.2619 23.3884C17.4377 23.5482 16.6521 23.8657 15.9483 24.3234C17.0773 24.0309 18.2356 23.866 19.4014 23.832C21.0323 23.832 22.4163 23.1653 22.9236 22.0151C23.7816 20.0893 22.4959 18.91 22.4959 18.91ZM16.708 27.2028C17.6563 26.7964 18.6444 27.2586 19.2686 28.0953C19.8928 28.932 20.1505 30.6931 21.4998 31.4873C22.8492 32.2815 24.2916 31.0172 24.2916 31.0172C24.2916 31.0172 22.9422 31.5882 22.1294 31.1925C21.2555 30.7675 21.1227 30.0237 20.9686 28.7434C20.703 26.6529 19.6059 25.8215 18.6417 25.4709C17.2781 25.0281 15.7956 25.1339 14.5086 25.7657C13.5923 26.2256 12.7344 26.7937 11.9533 27.4578C11.9533 27.4578 13.547 27.7234 14.1845 28.1032C14.822 28.4831 15.6348 29.774 16.4423 30.0264C17.1834 30.2601 17.9511 30.1432 18.3655 29.5429C18.7798 28.9426 18.5992 27.8907 17.9245 27.665C17.0984 27.3861 16.5088 27.7792 16.5433 28.2892C16.5365 28.4258 16.5827 28.5598 16.6723 28.6632C16.7619 28.7666 16.8879 28.8315 17.0241 28.8443C17.0241 28.8443 16.4928 28.5787 16.7159 28.1272C16.9816 27.6304 17.5925 27.7022 17.9245 27.9359C18.3309 28.2228 18.392 29.2109 17.6988 29.4925C17.0055 29.774 16.1289 29.3145 15.9961 28.7647C15.8633 28.2148 15.9138 27.5454 16.708 27.2028ZM14.66 13.3797L3.37891 0.874023C3.37891 0.874023 12.96 12.689 13.3027 13.0928C13.6453 13.4965 13.8339 13.8525 13.5364 14.1261C13.2884 14.3308 12.9888 14.4631 12.6705 14.5086C12.4488 14.5584 12.2173 14.5417 12.0051 14.4604C11.7929 14.3791 11.6095 14.2369 11.4778 14.0517C10.9944 13.47 7.46422 7.88387 7.46422 7.88387C7.46422 7.88387 10.6252 13.6054 10.7872 13.9428C10.9492 14.2801 11.0528 14.5776 10.8934 14.7901C10.6324 15.064 10.4115 15.3734 10.2373 15.7092C10.062 16.1395 9.91859 17.3986 9.7725 17.9431C9.37986 19.1117 8.74642 20.1849 7.91313 21.0934C7.15344 21.8903 6.56641 22.9262 6.7975 24.3898C7.01797 25.7897 7.91844 26.9 8.06984 27.139C8.22518 27.3528 8.31723 27.6059 8.33547 27.8695C8.33547 27.8695 10.5933 27.6039 11.8816 26.4218C13.0397 25.3593 12.4128 24.1693 12.0728 23.8692C11.8311 23.654 10.2825 22.6154 10.1284 22.0682C9.97438 21.5211 9.72469 21.1359 10.4631 19.6564C11.2016 18.1768 11.013 18.0201 11.1113 17.5101C11.2095 17.0001 11.1883 15.9482 11.7753 15.7357C12.3623 15.5232 13.1034 15.6215 13.81 15.2045C14.8406 14.5776 14.66 13.3797 14.66 13.3797ZM8.285 24.504C8.242 24.5045 8.19938 24.4961 8.15977 24.4793C8.12016 24.4626 8.08442 24.4379 8.05478 24.4067C8.02513 24.3756 8.0022 24.3387 7.98743 24.2983C7.97266 24.2579 7.96635 24.2149 7.96891 24.172C7.96891 23.994 8.15484 23.8665 8.12297 23.755C8.09109 23.6434 7.92906 23.6381 7.89453 23.4893C7.87594 23.4097 7.945 23.2582 8.23719 23.2476C8.40465 23.2572 8.56194 23.331 8.67627 23.4538C8.79059 23.5765 8.85311 23.7387 8.85078 23.9064C8.84606 24.0584 8.78549 24.2034 8.68063 24.3137C8.57578 24.4239 8.43399 24.4917 8.28234 24.504H8.285ZM15.603 15.7597C15.4104 15.7716 15.2224 15.8233 15.0509 15.9116C14.8794 15.9999 14.728 16.1229 14.6065 16.2727C14.4849 16.4225 14.3957 16.5959 14.3446 16.7819C14.2934 16.9679 14.2814 17.1625 14.3094 17.3534C14.397 18.0281 15.2842 17.9776 15.8341 17.8076C16.3839 17.6376 16.9709 17.542 16.9205 16.854C16.87 16.1661 16.0466 15.7357 15.603 15.7597ZM15.6216 16.8514C15.2763 16.8514 14.9973 16.6601 14.9973 16.4237C14.9973 16.1873 15.263 15.9961 15.6216 15.9961C15.9802 15.9961 16.2458 16.1873 16.2458 16.4237C16.2458 16.6601 15.9669 16.8514 15.6216 16.8514ZM13.4859 8.52402C13.4859 8.52402 14.7264 8.6409 15.3267 9.58653C15.927 10.5322 15.858 11.7992 16.1847 12.3597C16.3443 12.6663 16.5217 12.9634 16.7159 13.2495C16.8089 13.3664 16.8806 13.5417 16.6575 13.5815C16.1103 13.6825 14.8778 13.1831 14.2031 11.8497C13.1938 9.86543 13.4859 8.52402 13.4859 8.52402ZM26.127 8.29027C26.127 8.29027 25.7764 9.00746 26.0447 10.2692C26.1219 10.6195 26.3079 10.9365 26.5759 11.175C27.0851 11.6759 27.5623 12.2082 28.005 12.7687L26.7566 11.7567C26.4909 11.5442 26.3316 11.5522 26.3156 11.7779C26.2997 12.0037 26.2041 12.9892 26.1695 13.2043C26.0893 13.4837 25.9854 13.7556 25.8588 14.0172C25.8588 14.0172 25.9889 13.4036 26.0022 13.2362C26.0314 12.8272 26.0261 11.5787 25.7153 11.1829C25.1841 10.5082 23.5903 9.90262 23.5903 9.90262C24.21 9.99424 24.8137 10.1731 25.3833 10.4339C25.6223 10.5454 25.6755 10.4631 25.6755 10.2957C25.6932 9.85055 25.7393 9.40694 25.8136 8.96762C25.863 8.72021 25.9704 8.48806 26.127 8.29027Z" fill="#FF017A"/>
<path d="M26.7414 12.8535C26.5342 14.0276 26.1331 14.4473 26.003 14.5482C25.9197 14.6224 25.8132 14.6654 25.7018 14.6698C25.5903 14.6741 25.4808 14.6396 25.392 14.5721C25.3102 14.4978 25.2562 14.3979 25.2388 14.2887C25.2214 14.1796 25.2417 14.0678 25.2964 13.9718C25.4109 13.7636 25.4916 13.5386 25.5355 13.3051C25.5695 12.771 25.5302 12.2347 25.4186 11.7113C24.9791 11.4132 24.5089 11.1629 24.0161 10.9649C21.0384 9.74836 18.7381 10.508 18.7381 10.508C18.7381 10.508 17.5083 9.02586 16.3023 8.38305C15.4539 7.96564 14.5094 7.78224 13.5664 7.8518C13.5664 7.8518 15.2664 8.11742 16.2227 8.88773C17.9386 10.2876 19.7156 13.2041 20.9694 13.8841C23.538 15.2787 25.7825 14.4473 27.1611 15.1379C28.2023 15.6691 28.4892 16.3093 28.4892 16.3093C28.2276 15.0213 27.6239 13.8275 26.7414 12.8535Z" fill="#FF017A"/>
</svg>
