<svg width="1515" height="198" viewBox="0 0 1515 198" fill="none" xmlns="http://www.w3.org/2000/svg">
<path d="M0.777344 164.2L29.151 156L61.6255 152.3L95.7626 156.3L113.939 164.2L134.111 163L190.304 164.2L255.475 163L323.195 158.2L412.417 153.5L446.221 156.7L486.344 180.3L529.236 181.8L558.94 175.5L585.43 168.9L626.217 169.2L702.582 152.3L763.319 147.9L801.335 152.6L852.541 142.5L903.857 141.2L997.291 152.9L1055.48 146.6L1114.78 143.4L1215.97 157.9L1295.77 171.8L1382.66 160.4L1442.96 155.4L1479.64 160.4L1514.78 158.9V0H0.777344V164.2Z" fill="#150500"/>
<path d="M1514.78 151.6C1508.68 150.2 1499.59 153 1495.05 154.3C1490.5 152.9 1485.96 148.8 1479.86 148.8C1472.33 148.8 1460.13 151.5 1455.59 144.7C1449.49 142 1438.96 142 1432.87 142C1422.23 142 1410.15 152.9 1399.51 147.5C1391.97 147.5 1384.32 144.8 1376.79 146.1C1364.71 144.7 1351.07 151.6 1341.98 144.7C1338.99 146.1 1337.44 144.7 1335.89 144.7C1332.9 146.1 1326.8 147.4 1323.81 148.8C1307.18 150.2 1292 161.1 1273.82 159.7C1272.27 155.6 1267.73 155.6 1266.28 152.9C1266.28 152.9 1264.73 152.9 1264.73 151.5C1258.64 148.8 1245 143.3 1239.02 150.1C1229.93 152.8 1220.84 151.5 1211.75 151.5C1210.2 148.8 1198.12 150.1 1196.57 147.4C1185.93 144.7 1175.4 144.7 1164.76 143.3C1161.77 143.3 1160.22 144.7 1157.22 141.9C1152.68 141.9 1146.58 141.9 1142.04 141.9C1137.49 137.8 1129.96 135.1 1123.86 135.1C1117.77 136.5 1113.22 132.4 1111.78 128.3C1101.14 124.2 1089.06 129.7 1078.42 129.7C1072.32 125.6 1064.79 131.1 1058.69 133.8C1055.7 135.2 1049.6 133.8 1049.6 136.5C1046.61 136.5 1043.51 137.9 1040.51 137.9C1038.96 137.9 1035.97 137.9 1032.98 139.3C1031.43 139.3 1028.43 139.3 1026.88 140.7C1020.79 140.7 1014.8 140.7 1008.71 143.4C1007.15 143.4 1004.16 142 1002.61 142C998.065 136.5 993.521 136.5 985.984 136.5C979.888 136.5 973.903 133.8 969.359 131H963.263C961.711 125.5 958.719 128.3 954.175 128.3C952.623 128.3 949.63 131 948.079 129.7C940.542 135.2 929.902 132.4 922.365 135.2C919.373 136.6 916.269 139.3 913.277 136.6C910.284 136.6 907.181 135.2 904.188 135.2C901.196 132.5 893.548 132.5 889.004 132.5C884.46 129.8 878.364 132.5 872.379 131.1C866.283 131.1 858.746 129.7 852.65 131.1C849.658 132.5 842.01 129.7 840.569 132.5C829.929 133.9 822.392 143.4 810.311 143.4C808.76 143.4 804.215 142 802.775 143.4C793.686 143.4 787.59 142 778.502 143.4C776.95 139.3 780.054 131.1 773.958 129.7C773.958 128.3 772.406 128.3 770.965 128.3C773.958 129.7 764.869 124.2 763.428 124.2C757.332 124.2 752.788 124.2 749.796 129.7C745.252 131.1 740.707 131.1 734.611 131.1C733.06 131.1 731.619 131.1 730.067 132.5C723.971 132.5 719.427 138 714.883 138C714.883 138 714.883 138 713.331 138C711.78 144.8 702.691 142.1 698.147 144.8C695.154 147.5 690.61 147.5 686.066 147.5C681.522 147.5 681.522 150.2 675.426 148.9C673.874 148.9 670.882 150.3 669.33 151.6C664.786 151.6 661.793 153 655.697 153C651.153 151.6 643.616 147.5 639.072 151.6C639.072 151.6 639.072 151.6 637.52 151.6C637.52 159.8 632.976 154.3 631.424 155.7C626.88 155.7 623.888 151.6 622.336 147.5C619.343 144.8 610.255 147.5 610.255 150.2C601.167 152.9 590.527 152.9 587.534 162.5C581.438 159.8 573.901 161.1 567.805 161.1C566.254 162.5 560.269 167.9 560.269 169.3C558.717 169.3 557.276 167.9 557.276 170.7C552.732 170.7 548.188 169.3 543.643 172.1C543.643 168 531.563 173.5 533.003 169.4C526.907 165.3 519.371 169.4 514.826 173.5C507.29 172.1 504.186 163.9 495.098 163.9C484.458 162.5 473.929 157.1 461.737 155.7C454.2 157.1 452.648 144.8 443.56 147.5L439.016 148.9C431.479 150.3 434.471 143.4 434.471 139.3C434.471 133.8 428.376 129.7 423.831 128.4C420.839 125.7 414.743 125.7 410.199 125.7C404.103 127.1 399.559 138 392.022 133.9C385.926 129.8 381.382 121.6 372.293 123C367.749 127.1 360.212 129.8 355.668 133.9C349.572 138 343.587 138 337.491 139.4C334.499 138 331.395 139.4 329.954 140.8C317.874 140.8 307.233 144.9 298.145 149C289.057 147.6 281.52 147.6 272.431 147.6C272.431 147.6 269.439 147.6 269.439 146.2C263.343 150.3 258.799 147.6 251.262 148.9C248.269 148.9 242.173 148.9 240.622 146.2C234.526 146.2 229.982 144.8 223.997 144.8C219.452 144.8 216.46 143.4 211.916 146.2C204.379 146.2 195.29 146.2 189.195 147.6C183.099 153.1 175.562 162.6 164.922 157.2C161.929 157.2 155.833 155.8 152.841 157.2C149.848 153.1 139.208 155.8 136.216 153.1C131.671 154.5 125.576 151.7 124.135 154.5C119.59 154.5 115.046 154.5 112.054 157.2H110.502C107.51 150.4 102.965 153.1 101.414 150.4C99.8619 150.4 93.8769 149 93.8769 147.7C87.781 149.1 86.3401 147.7 78.6925 147.7C75.7 145 69.6041 142.2 65.0599 139.5C58.964 138.1 52.9789 140.9 48.4347 140.9C40.8979 142.3 39.3463 143.6 33.2504 145C30.2578 147.7 21.1694 153.2 16.6252 149.1C10.5293 147.7 5.98507 146.4 0 146.4V181.6C4.54422 180.2 7.53675 177.5 13.6326 176.1C16.6252 173.4 19.7286 172 25.7136 170.6C33.2504 170.6 42.3388 167.9 51.4272 166.5C55.9714 162.4 57.5231 162.4 60.5157 159.7C65.0599 159.7 71.1558 159.7 75.7 159.7C80.2442 161.1 84.7884 162.4 89.3326 163.8C87.781 167.9 89.3326 167.9 92.3252 167.9C93.8769 170.6 96.8694 169.3 96.8694 172C98.4211 172 99.8619 170.6 99.8619 172C102.854 172 107.399 172 110.502 172C110.502 170.6 121.142 170.6 121.142 169.3C128.679 167.9 137.767 172 142.312 167.9C149.848 166.5 158.937 169.3 166.584 166.5C190.857 165.1 204.49 174.7 227.1 173.3C242.284 171.9 252.814 176 265.005 181.5C269.55 178.8 284.734 176 284.734 169.2C284.734 169.2 286.286 169.2 286.286 167.8C292.382 167.8 296.926 167.8 302.911 170.5C316.543 166.4 318.095 170.5 325.632 177.3C330.176 175.9 336.272 180 340.816 180C349.905 178.6 357.441 181.4 365.089 184.1C368.082 184.1 368.082 181.4 369.633 182.7C371.185 182.7 371.185 182.7 371.185 181.3C372.737 181.3 374.177 181.3 375.729 179.9C378.722 179.9 383.266 179.9 386.369 179.9C393.906 179.9 400.002 178.5 406.098 173.1C415.186 169 418.179 170.4 427.267 167.6C433.363 166.2 440.9 158 445.444 166.2C445.444 166.2 445.444 166.2 445.444 167.6C448.437 167.6 446.996 170.3 449.988 171.7C451.54 171.7 456.084 175.8 457.525 177.2C460.518 178.6 460.518 182.7 463.621 184C471.158 182.6 480.246 178.5 486.342 184C492.438 188.1 498.423 188.1 504.519 192.2C509.063 192.2 510.615 194.9 516.6 194.9C519.592 194.9 522.696 196.3 527.24 194.9C527.24 196.3 527.24 196.3 527.24 197.6C530.233 193.5 530.233 194.9 530.233 196.2C531.784 196.2 536.328 194.8 537.769 194.8C537.769 194.8 539.321 194.8 539.321 193.4C545.417 190.7 562.042 187.9 563.594 183.8C568.138 183.8 571.13 181.1 575.675 181.1C580.219 179.7 586.315 182.5 589.307 179.7C593.852 181.1 599.947 177 604.492 181.1C609.036 182.5 619.676 181.1 622.668 183.8C624.22 183.8 628.764 185.2 628.764 186.5C630.316 186.5 633.309 185.1 633.309 183.8C633.309 183.8 634.86 183.8 634.86 182.4C634.86 183.8 636.412 183.8 636.412 182.4C637.964 179.7 645.5 179.7 647.052 176.9C654.589 174.2 663.677 176.9 669.773 171.4C666.781 165.9 677.31 167.3 681.854 167.3C686.398 159.1 698.479 165.9 701.583 160.5C701.583 160.5 703.134 160.5 703.134 159.1C712.223 153.6 719.76 163.2 728.848 161.8C733.392 163.2 737.936 164.5 744.032 165.9C742.481 170 744.032 168.6 745.584 168.6C748.577 170 753.121 171.3 757.665 171.3C760.658 163.1 774.29 165.8 783.379 164.5C790.915 163.1 797.011 157.7 806.1 156.3C821.284 156.3 836.358 154.9 851.542 154.9C859.079 152.2 862.182 145.3 869.719 144C871.27 142.6 877.255 148.1 877.255 145.4C881.8 144 886.344 146.8 889.336 146.8C892.329 146.8 898.425 152.3 899.977 149.5C912.058 150.9 930.234 145.4 939.323 153.6C942.315 155 942.315 156.3 945.419 159.1C952.955 157.7 956.059 167.3 963.596 168.7C972.684 172.8 984.765 167.3 993.853 168.7C1004.49 168.7 1016.57 171.4 1024.11 176.9H1025.66C1030.21 171.4 1039.3 172.8 1043.84 167.3C1049.94 160.5 1062.02 157.7 1072.66 159.1C1083.3 153.6 1093.83 145.4 1106.02 152.3C1107.57 156.4 1116.66 155 1119.65 155C1128.74 155 1136.28 155 1145.36 155C1149.91 157.7 1159 156.4 1165.09 156.4C1168.09 156.4 1168.09 156.4 1171.19 156.4C1180.28 156.4 1190.92 155 1200.01 157.8C1204.55 160.5 1207.54 161.9 1212.09 164.6C1216.63 171.4 1219.62 167.3 1224.17 171.4C1230.26 168.7 1239.35 170 1245.34 170C1249.88 170 1254.43 167.3 1257.42 170C1261.96 180.9 1278.59 176.8 1286.23 185C1287.79 185 1289.23 186.4 1289.23 186.4C1293.77 190.5 1299.87 193.2 1307.4 193.2C1311.95 191.8 1314.94 195.9 1318.04 195.9C1321.04 193.2 1321.04 191.8 1327.13 190.4C1328.68 189 1330.13 187.7 1333.23 186.3C1334.78 186.3 1337.77 184.9 1337.77 186.3C1352.96 183.6 1368.03 179.5 1383.22 174C1387.76 174 1392.3 172.6 1396.85 172.6C1399.84 172.6 1401.39 168.5 1404.38 169.9C1416.47 169.9 1422.56 159 1434.64 164.4C1445.28 164.4 1449.83 169.9 1460.36 174C1460.36 176.7 1471 175.4 1472.44 175.4C1473.99 165.8 1476.98 171.3 1479.97 167.2C1487.51 165.8 1495.16 165.8 1502.69 165.8C1507.24 164.4 1508.79 163.1 1514.78 164.4V151.6Z" fill="#E7746F"/>
</svg>
